<?xml version="1.0" encoding="UTF-8" standalone="no"?>
<svg
   xmlns:dc="http://purl.org/dc/elements/1.1/"
   xmlns:cc="http://creativecommons.org/ns#"
   xmlns:rdf="http://www.w3.org/1999/02/22-rdf-syntax-ns#"
   xmlns:svg="http://www.w3.org/2000/svg"
   xmlns="http://www.w3.org/2000/svg"
   xmlns:sodipodi="http://sodipodi.sourceforge.net/DTD/sodipodi-0.dtd"
   xmlns:inkscape="http://www.inkscape.org/namespaces/inkscape"
   version="1.1"
   id="svg2"
   xml:space="preserve"
   width="661.33331"
   height="661.33331"
   viewBox="0 0 661.33331 661.33331"
   sodipodi:docname="Facebook_Blue.eps"><metadata
     id="metadata8"><rdf:RDF><cc:Work
         rdf:about=""><dc:format>image/svg+xml</dc:format><dc:type
           rdf:resource="http://purl.org/dc/dcmitype/StillImage" /></cc:Work></rdf:RDF></metadata><defs
     id="defs6" /><sodipodi:namedview
     pagecolor="#ffffff"
     bordercolor="#666666"
     borderopacity="1"
     objecttolerance="10"
     gridtolerance="10"
     guidetolerance="10"
     inkscape:pageopacity="0"
     inkscape:pageshadow="2"
     inkscape:window-width="640"
     inkscape:window-height="480"
     id="namedview4" /><g
     id="g10"
     inkscape:groupmode="layer"
     inkscape:label="ink_ext_XXXXXX"
     transform="matrix(1.3333333,0,0,-1.3333333,0,661.33333)"><g
       id="g12"
       transform="scale(0.1)"><path
         d="M 4408.89,4960 H 551.109 C 247.109,4959.11 0.890625,4712.89 0,4408.89 V 551.109 C 0.792969,247.07 247.07,0.789063 551.109,0 H 2480 v 1928.89 h -551.11 v 682 H 2480 v 564.89 c 0,596.3 334,1015.15 1037.74,1015.15 l 496.83,-0.55 v -717.82 h -329.84 c -273.9,0 -378.06,-205.56 -378.06,-396.25 V 2610.62 H 4014.3 L 3857.78,1928.9 H 3306.67 V 0 H 4408.89 C 4712.93,0.789063 4959.21,247.07 4960,551.109 V 4408.89 c -0.89,304 -247.11,550.22 -551.11,551.11"
         style="fill:#264894;fill-opacity:1;fill-rule:nonzero;stroke:none"
         id="path14" /></g></g></svg>
