<?xml version="1.0" encoding="UTF-8" standalone="no"?>
<svg
   xmlns:dc="http://purl.org/dc/elements/1.1/"
   xmlns:cc="http://creativecommons.org/ns#"
   xmlns:rdf="http://www.w3.org/1999/02/22-rdf-syntax-ns#"
   xmlns:svg="http://www.w3.org/2000/svg"
   xmlns="http://www.w3.org/2000/svg"
   xmlns:sodipodi="http://sodipodi.sourceforge.net/DTD/sodipodi-0.dtd"
   xmlns:inkscape="http://www.inkscape.org/namespaces/inkscape"
   version="1.1"
   id="svg2"
   xml:space="preserve"
   width="661.33331"
   height="661.33331"
   viewBox="0 0 661.33331 661.33331"
   sodipodi:docname="Instagram_White.eps"><metadata
     id="metadata8"><rdf:RDF><cc:Work
         rdf:about=""><dc:format>image/svg+xml</dc:format><dc:type
           rdf:resource="http://purl.org/dc/dcmitype/StillImage" /></cc:Work></rdf:RDF></metadata><defs
     id="defs6" /><sodipodi:namedview
     pagecolor="#ffffff"
     bordercolor="#666666"
     borderopacity="1"
     objecttolerance="10"
     gridtolerance="10"
     guidetolerance="10"
     inkscape:pageopacity="0"
     inkscape:pageshadow="2"
     inkscape:window-width="640"
     inkscape:window-height="480"
     id="namedview4" /><g
     id="g10"
     inkscape:groupmode="layer"
     inkscape:label="ink_ext_XXXXXX"
     transform="matrix(1.3333333,0,0,-1.3333333,0,661.33333)"><g
       id="g12"
       transform="scale(0.1)"><path
         d="m 3803.83,3506.23 c -163.84,0.21 -296.49,133.2 -296.28,297.04 0.21,163.84 133.2,296.49 297.04,296.28 163.84,-0.21 296.49,-133.2 296.28,-297.04 -0.15,-119.09 -71.5,-226.54 -181.2,-272.89 -36.65,-15.51 -76.05,-23.47 -115.84,-23.4 z M 2480,3306.67 c -55.96,0.01 -111.77,-5.62 -166.6,-16.8 -105.74,-21.66 -206.19,-63.92 -295.6,-124.39 -132.91,-89.72 -236.95,-216.06 -299.51,-363.71 -21.14,-50.01 -37.27,-101.99 -48.17,-155.18 -22.39,-109.94 -22.39,-223.27 0,-333.21 21.66,-105.74 63.92,-206.18 124.39,-295.59 89.72,-132.91 216.06,-236.94 363.71,-299.5 50.01,-21.14 101.99,-37.27 155.18,-48.17 447.68,-91.6 884.86,197.05 976.47,644.74 22.39,109.44 22.39,222.29 0,331.73 -21.65,105.74 -63.92,206.19 -124.38,295.6 -89.72,132.91 -216.06,236.95 -363.71,299.51 -50.01,21.14 -101.98,37.27 -155.17,48.17 -54.83,11.18 -110.65,16.81 -166.61,16.79 z m 0,-2100.19 c -86.21,-0.02 -172.19,8.65 -256.66,25.87 -162.89,33.38 -317.61,98.5 -455.34,191.65 -204.75,138.22 -365.03,332.85 -461.41,560.31 -32.57,77.04 -57.42,157.11 -74.21,239.05 -34.5,169.37 -34.5,343.95 0,513.32 33.37,162.88 98.48,317.59 191.62,455.32 138.22,204.75 332.85,365.03 560.31,461.41 77.04,32.57 157.11,57.42 239.05,74.21 169.37,34.5 343.95,34.5 513.32,0 162.88,-33.37 317.59,-98.48 455.32,-191.62 204.75,-138.22 365.02,-332.85 461.4,-560.31 32.57,-77.04 57.42,-157.11 74.21,-239.05 34.5,-169.37 34.5,-343.95 0,-513.32 -33.37,-162.88 -98.47,-317.59 -191.61,-455.32 -138.22,-204.75 -332.85,-365.02 -560.31,-461.4 -77.04,-32.57 -157.11,-57.42 -239.05,-74.21 -84.46,-17.24 -170.44,-25.92 -256.64,-25.91 z m 0,3306.67 c -662,0 -740.5,-2.52 -1002.14,-14.44 -157.26,-1.86 -313.02,-30.75 -460.49,-85.41 C 909.645,4373.55 812.203,4310.16 732.211,4227.79 649.836,4147.8 586.441,4050.36 546.699,3942.63 492.047,3795.16 463.152,3639.4 461.289,3482.14 449.371,3220.5 446.852,3142 446.852,2480 c 0,-662 2.519,-740.5 14.437,-1002.13 1.863,-157.26 30.758,-313.02 85.41,-460.49 39.746,-107.72 103.141,-205.169 185.512,-285.161 79.992,-82.379 177.434,-145.77 285.159,-185.508 147.47,-54.66 303.23,-83.551 460.49,-85.41 261.59,-11.922 340,-14.442 1002.14,-14.442 662.14,0 740.54,2.52 1002.13,14.442 157.26,1.859 313.02,30.758 460.49,85.41 216.29,83.41 387.25,254.371 470.66,470.659 54.66,147.47 83.55,303.23 85.41,460.49 11.92,261.63 14.44,340.08 14.44,1002.13 0,662.29 -2.52,740.71 -14.44,1002.14 -1.86,157.26 -30.75,313.02 -85.41,460.49 -39.75,107.72 -103.14,205.17 -185.51,285.16 -79.99,82.37 -177.44,145.76 -285.16,185.51 -147.47,54.65 -303.23,83.54 -460.49,85.41 C 3220.5,4510.63 3142,4513.15 2480,4513.15 Z M 2480,0 C 1809.81,0 1721.88,2.85156 1457.49,14.9219 1251.75,19.0313 1048.2,58.0117 855.488,130.191 690.008,192.441 540.102,290.039 416.219,416.191 290.082,540.082 192.48,689.98 130.219,855.461 58.0391,1048.17 19.0625,1251.72 14.9492,1457.46 2.85156,1722.29 0,1810.29 0,2480 c 0,669.71 2.85156,757.71 14.9219,1022.5 4.1094,205.74 43.0859,409.29 115.2691,602 62.258,165.48 159.86,315.38 286,439.27 123.887,126.14 273.793,223.74 439.27,286 192.709,72.18 396.259,111.16 601.999,115.27 264.83,12.11 352.83,14.96 1022.54,14.96 669.71,0 757.71,-2.85 1022.5,-14.92 205.74,-4.11 409.29,-43.09 602,-115.27 165.48,-62.26 315.38,-159.86 439.27,-286 126.14,-123.88 223.74,-273.79 286,-439.27 72.18,-192.71 111.16,-396.26 115.27,-602 12.11,-264.83 14.96,-352.83 14.96,-1022.54 0,-669.71 -2.85,-757.71 -14.92,-1022.5 -4.12,-205.74 -43.09,-409.29 -115.27,-602 C 4700.98,522.359 4437.63,259.012 4104.49,130.191 3911.78,58.0117 3708.23,19.0313 3502.49,14.9219 3238.11,2.85156 3150.19,0 2480,0"
         style="fill:#ffffff;fill-opacity:1;fill-rule:nonzero;stroke:none"
         id="path14" /></g></g></svg>
