<?xml version="1.0" encoding="UTF-8" standalone="no"?>
<svg
   xmlns:dc="http://purl.org/dc/elements/1.1/"
   xmlns:cc="http://creativecommons.org/ns#"
   xmlns:rdf="http://www.w3.org/1999/02/22-rdf-syntax-ns#"
   xmlns:svg="http://www.w3.org/2000/svg"
   xmlns="http://www.w3.org/2000/svg"
   viewBox="0 0 653.01331 564.8667"
   height="564.8667"
   width="653.01331"
   xml:space="preserve"
   id="svg2"
   version="1.1"><metadata
     id="metadata8"><rdf:RDF><cc:Work
         rdf:about=""><dc:format>image/svg+xml</dc:format><dc:type
           rdf:resource="http://purl.org/dc/dcmitype/StillImage" /></cc:Work></rdf:RDF></metadata><defs
     id="defs6" /><g
     transform="matrix(1.3333333,0,0,-1.3333333,0,564.86667)"
     id="g10"><g
       transform="scale(0.1)"
       id="g12"><path
         id="path14"
         style="fill:#ffffff;fill-opacity:1;fill-rule:evenodd;stroke:none"
         d="m 1159.01,696.648 c -14.91,-1.398 -28.82,8.454 -32.39,22.903 l -80.81,328.399 c -3.18,13.8 -8.25,25.52 -15.12,35.06 -6.67,9.3 -16.67,18.2 -28.93,25.75 -12.311,7.59 -23.322,11.93 -34.662,13.69 -13.008,2.04 -27.442,1.51 -39.649,-1.47 -7.5,-1.83 -14.824,-4.94 -22.402,-9.49 -17.813,-10.73 -32.449,-26.85 -42.324,-46.64 -4.344,-8.71 -6.875,-16.38 -7.969,-24.12 -1.543,-10.92 -0.391,-25.06 3.23,-39.84 L 1017.13,353.98 c 3.9,-15.89 -5.76,-32.281 -21.567,-36.539 L 648.641,223.879 c -2.625,-0.719 -5.301,-1.07 -7.957,-1.07 -5.239,0 -10.411,1.371 -15.079,4.062 -7.042,4.051 -12.074,10.598 -14.179,18.438 L 223.863,1694.41 c -2.097,7.84 -1.011,16.03 3.059,23.05 4.062,7.03 10.637,12.04 18.484,14.13 l 360.539,95.38 c 7.832,2.08 15.996,0.98 23.02,-3.1 7,-4.08 12,-10.64 14.07,-18.47 l 106.309,-401.65 c 2.883,-11.38 8.191,-21.93 16.758,-33.36 7.675,-10.25 17.91,-19.42 28.836,-25.82 10.382,-6.1 22.96,-10.26 36.378,-12.05 14.707,-1.97 27.11,-1.53 37.918,1.35 13.403,3.54 25.461,9.28 34.883,16.61 9.367,7.23 17.27,16.65 24.172,28.8 6.445,11.33 10.637,23.91 12.129,36.36 1.543,12.64 0.52,25.36 -3.047,37.84 l -46.863,174.41 c -4.336,16.14 5.254,32.81 21.394,37.17 l 816.418,180.31 c 6.9,1.88 14.87,0.94 21.78,-2.83 l 629.14,-303.18 c 12.73,-6.92 25.15,-11.28 35.62,-12.61 10.34,-1.34 21.01,-0.39 34.57,3.11 l 873.39,217.02 c 41.97,10.2 116.7,-27.56 142.35,-122.63 25.67,-96.09 -18.93,-164.98 -59.58,-175.89 L 2392.38,1177.1 c -12.6,-3.2 -24.98,-9.12 -35.07,-16.74 -8.81,-6.65 -16.47,-15.82 -24.11,-28.85 -7.69,-13.11 -12.34,-25.35 -13.81,-36.39 -1.62,-12.13 -0.59,-24.81 3.04,-37.7 3.61,-13.62 9.36,-25.68 16.68,-35.11 7.23,-9.35 16.64,-17.25 28.8,-24.169 11.34,-6.43 23.91,-10.629 36.37,-12.129 12.63,-1.563 25.37,-0.524 37.88,3.019 l 1013.4,271.309 c 105.39,28.29 181.35,117.55 203.2,238.76 1.53,8.44 6.51,15.83 13.67,20.31 l 881.54,552.89 c 13.51,8.36 29.08,12.65 46.36,12.8 l 5.87,0.05 0.35,-0.32 c 35.16,-2.03 67.6,-21.85 85.7,-52.74 13.41,-23.64 15.07,-40.76 6.67,-68.02 -8.81,-28.35 -30.78,-59.71 -58.78,-83.93 l -619.46,-538.95 c -0.38,-0.44 -0.85,-0.92 -1.33,-1.37 -36.9,-33.58 -77.05,-72.24 -119.55,-113.18 -208.84,-201.17 -494.88,-476.679 -835.33,-567.609 -356.88,-95.64 -499.05,-78.25 -782.27,-43.562 -60.38,7.39 -128.8,15.773 -206.67,23.871 -85.19,8.781 -161.13,16.961 -229.75,24.34 -322.8,34.75 -484.82,52.172 -686.77,32.968 z m 641.9,-222.609 c 74.12,-8.051 158.13,-17.168 255.03,-27.148 66.31,-6.911 125.64,-13.942 183.02,-20.743 306.18,-36.308 490.97,-58.199 875.57,44.813 l 3.62,0.5 c 406.37,109.219 713.63,413.668 917.06,615.229 42.64,42.24 79.47,78.72 112.5,108.87 l 619.78,537.5 c 58.27,50.51 97.98,108.83 118,173.35 22.58,72.76 13.27,155.96 -24.94,222.59 l -1.99,3.46 v 1.61 c -52.52,87.38 -148.43,142.77 -251.32,144.85 l -6.57,0.14 c -51.49,-0.04 -100.49,-12.87 -142.61,-37.3 v -1.54 l -794.13,-497.68 c -7.18,-4.49 -16,-5.8 -24.18,-3.56 -8.09,2.22 -14.94,7.75 -18.77,15.18 -72.82,140.85 -211.49,213.39 -345.07,180.54 l -823.66,-205.03 c -7.39,-1.84 -15.15,-0.85 -21.83,2.79 l -631.07,303.28 c -13.48,7.33 -24.88,11.34 -35.51,12.61 -11.11,1.33 -23.05,0.3 -36.53,-3.13 L 861.504,1852.87 c -7.199,-1.95 -15.395,-0.87 -22.426,3.19 -7.039,4.08 -12.051,10.64 -14.129,18.5 l -27.59,104.1 c -3.191,11.91 -8.64,22.79 -16.648,33.21 -8.184,10.67 -18.438,19.88 -28.875,25.93 -10.512,6.08 -23.449,10.37 -36.43,12.09 -3.14,0.41 -6.441,0.62 -9.898,0.62 -8.559,0 -18.028,-1.27 -28.305,-3.79 L 71.9727,1885.77 c -11.9258,-3.18 -22.793,-8.64 -33.2344,-16.66 -10.711,-8.23 -19.9219,-18.48 -25.918,-28.86 -6.09374,-10.53 -10.39061,-23.47 -12.097644,-36.44 -1.59375,-12.08 -0.539062,-25.11 3.066404,-37.66 L 457.098,71.8984 c 3.203,-11.9492 8.652,-22.8281 16.66,-33.25 8.23,-10.707 18.476,-19.9179 28.855,-25.9179 C 513.152,6.64063 526.094,2.33984 539.063,0.628906 550,-0.828125 562.859,0.25 577.266,3.80859 L 1166.75,161.23 c 11.59,3.102 22.8,8.731 33.31,16.711 8.04,6.098 15.46,14.739 22.66,26.43 5.92,9.598 10,19.481 12.12,29.371 3.43,15.957 3.43,30 -0.02,44.188 l -46.5,192.48 c -2.1,8.692 -0.28,17.82 5.01,25.059 5.26,7.211 13.38,11.73 22.25,12.383 163.33,12.019 304.34,-3.301 585.33,-33.813" /><path
         id="path16"
         style="fill:#ffffff;fill-opacity:1;fill-rule:nonzero;stroke:none"
         d="m 1517.94,3499.86 c 0,-20.3 -16.52,-36.82 -36.83,-36.82 H 928.648 c -20.308,0 -36.832,16.52 -36.832,36.82 v 552.47 c 0,20.3 16.524,36.83 36.832,36.83 h 552.462 c 1.37,0 2.67,-0.26 4.01,-0.41 l 108.95,108.96 c -31.19,24.27 -70.37,38.77 -112.96,38.77 H 928.648 c -101.707,0 -184.152,-82.45 -184.152,-184.15 v -552.47 c 0,-101.7 82.445,-184.15 184.152,-184.15 h 552.462 c 101.7,0 184.15,82.45 184.15,184.15 v 352.34 l -147.32,-147.32 v -205.02" /><path
         id="path18"
         style="fill:#ffffff;fill-opacity:1;fill-rule:nonzero;stroke:none"
         d="m 1794.01,4189.3 c -28.77,28.77 -75.4,28.77 -104.17,0 l -440.42,-440.42 -141.09,141.1 c -28.77,28.77 -75.41,28.76 -104.17,0 -28.769,-28.76 -28.773,-75.4 -0.01,-104.17 l 188.04,-188.05 c 15.78,-15.73 36.49,-23.6 57.21,-23.6 20.74,0 41.5,7.89 57.32,23.67 l 487.29,487.3 c 28.77,28.76 28.77,75.41 0,104.17" /><path
         id="path20"
         style="fill:#ffffff;fill-opacity:1;fill-rule:nonzero;stroke:none"
         d="m 1517.94,2383.33 c 0,-20.31 -16.52,-36.84 -36.83,-36.84 H 928.648 c -20.308,0 -36.832,16.53 -36.832,36.84 v 552.46 c 0,20.3 16.524,36.83 36.832,36.83 h 552.462 c 1.37,0 2.67,-0.26 4.01,-0.41 l 108.95,108.96 c -31.19,24.27 -70.37,38.77 -112.96,38.77 H 928.648 c -101.707,0 -184.152,-82.45 -184.152,-184.15 v -552.46 c 0,-101.71 82.445,-184.16 184.152,-184.16 h 552.462 c 101.7,0 184.15,82.45 184.15,184.16 v 352.33 l -147.32,-147.32 v -205.01" /><path
         id="path22"
         style="fill:#ffffff;fill-opacity:1;fill-rule:nonzero;stroke:none"
         d="m 1794.01,3072.76 c -28.77,28.77 -75.4,28.76 -104.17,0 l -440.42,-440.42 -141.09,141.1 c -28.77,28.77 -75.41,28.76 -104.17,0 -28.769,-28.76 -28.773,-75.4 -0.01,-104.17 l 188.04,-188.05 c 15.78,-15.73 36.49,-23.6 57.21,-23.6 20.74,0 41.5,7.89 57.32,23.67 l 487.29,487.3 c 28.77,28.76 28.77,75.4 0,104.17" /><path
         id="path24"
         style="fill:#ffffff;fill-opacity:1;fill-rule:nonzero;stroke:none"
         d="m 4628.88,3842.8 h -2420 c -49.71,0 -90,40.29 -90,90 v 0 c 0,49.7 40.29,90 90,90 h 2420 c 49.71,0 90,-40.3 90,-90 v 0 c 0,-49.71 -40.29,-90 -90,-90" /><path
         id="path26"
         style="fill:#ffffff;fill-opacity:1;fill-rule:nonzero;stroke:none"
         d="m 3428.88,3529.4 h -1220 c -49.71,0 -90,40.29 -90,90 v 0 c 0,49.7 40.29,90 90,90 h 1220 c 49.71,0 90,-40.3 90,-90 v 0 c 0,-49.71 -40.29,-90 -90,-90" /><path
         id="path28"
         style="fill:#ffffff;fill-opacity:1;fill-rule:nonzero;stroke:none"
         d="m 4628.88,2726.25 h -2420 c -49.71,0 -90,40.3 -90,90 v 0 c 0,49.71 40.29,90 90,90 h 2420 c 49.71,0 90,-40.29 90,-90 v 0 c 0,-49.7 -40.29,-90 -90,-90" /><path
         id="path30"
         style="fill:#ffffff;fill-opacity:1;fill-rule:nonzero;stroke:none"
         d="m 3428.88,2412.86 h -1220 c -49.71,0 -90,40.29 -90,90 v 0 c 0,49.7 40.29,90 90,90 h 1220 c 49.71,0 90,-40.3 90,-90 v 0 c 0,-49.71 -40.29,-90 -90,-90" /></g></g></svg>