<?xml version="1.0" encoding="UTF-8" standalone="no"?>
<svg
   xmlns:dc="http://purl.org/dc/elements/1.1/"
   xmlns:cc="http://creativecommons.org/ns#"
   xmlns:rdf="http://www.w3.org/1999/02/22-rdf-syntax-ns#"
   xmlns:svg="http://www.w3.org/2000/svg"
   xmlns="http://www.w3.org/2000/svg"
   viewBox="0 0 597.32001 597.33331"
   height="597.33331"
   width="597.32001"
   xml:space="preserve"
   id="svg2"
   version="1.1"><metadata
     id="metadata8"><rdf:RDF><cc:Work
         rdf:about=""><dc:format>image/svg+xml</dc:format><dc:type
           rdf:resource="http://purl.org/dc/dcmitype/StillImage" /></cc:Work></rdf:RDF></metadata><defs
     id="defs6" /><g
     transform="matrix(1.3333333,0,0,-1.3333333,0,597.33333)"
     id="g10"><g
       transform="scale(0.1)"
       id="g12"><path
         id="path14"
         style="fill:#ffffff;fill-opacity:1;fill-rule:nonzero;stroke:none"
         d="M 512.664,3972.16 1378.1,3106.77 c -50.12,-62.89 -78.48,-115.2 -88.13,-161.37 -73.09,-349.96 112.73,-798.52 484.88,-1170.7 372.15,-371.95 820.51,-557.58 1170.4,-484.69 46.21,9.65 98.52,38.09 161.41,88.12 L 3972.09,512.742 C 3714.32,206.879 3595.84,185.898 3559.67,186.762 2439.67,233.051 233.07,2439.66 186.77,3559.66 c -1.368,32.54 19.609,154.22 325.941,412.47 z m 399.02,295.27 819.146,-819.14 C 1657.74,3387 1576.42,3315.48 1504.35,3244.5 l -844.737,844.73 c 100.59,76.21 193.75,139.69 252.071,178.2 z M 3448.19,1730.83 4267.32,911.691 c -38.47,-58.32 -101.98,-151.48 -178.2,-252.07 l -844.73,844.769 c 70.98,72.03 142.42,153.4 203.79,226.45 z M 3551.98,0.230469 C 3555.45,0.109375 3558.89,0 3562.44,0 c 161.13,0 360.31,150.859 608.2,460.551 165.35,206.281 289.92,406.09 295.23,414.527 22.9,36.832 17.43,84.57 -13.32,115.274 L 3507.51,1935.5 c -18.67,18.68 -44.49,28.52 -70.89,27.19 -26.45,-1.36 -50.94,-13.9 -67.62,-34.49 -85.12,-105.12 -209.92,-251.95 -320.82,-354.18 -97.97,-90.31 -136.91,-100.43 -141.02,-101.29 -285.12,-59.69 -677.23,110.9 -1000.3,433.95 -323.2,323.16 -493.63,715.9 -434.22,1000.5 0.9,4.18 11.13,43.17 101.37,141.05 102.34,111.09 249.1,235.78 354.18,320.82 20.59,16.64 33.09,41.25 34.53,67.7 1.37,26.36 -8.55,52.18 -27.27,70.86 l -945.114,945.03 c -30.82,30.67 -78.481,36.14 -115.313,13.25 -8.398,-5.24 -208.281,-129.96 -414.531,-295.12 -0.039,-0.04 -0.078,-0.12 -0.113,-0.16 C 144.008,3917.21 -6.53125,3714.83 0.21875,3551.9 50.2578,2340.7 2340.62,50.3008 3552.02,0.199219 l -0.04,0.03125" /></g></g></svg>