<?xml version="1.0" encoding="UTF-8" standalone="no"?>
<svg
   xmlns:dc="http://purl.org/dc/elements/1.1/"
   xmlns:cc="http://creativecommons.org/ns#"
   xmlns:rdf="http://www.w3.org/1999/02/22-rdf-syntax-ns#"
   xmlns:svg="http://www.w3.org/2000/svg"
   xmlns="http://www.w3.org/2000/svg"
   viewBox="0 0 597.33331 405.33334"
   height="405.33334"
   width="597.33331"
   xml:space="preserve"
   id="svg2"
   version="1.1"><metadata
     id="metadata8"><rdf:RDF><cc:Work
         rdf:about=""><dc:format>image/svg+xml</dc:format><dc:type
           rdf:resource="http://purl.org/dc/dcmitype/StillImage" /></cc:Work></rdf:RDF></metadata><defs
     id="defs6" /><g
     transform="matrix(1.3333333,0,0,-1.3333333,0,405.33333)"
     id="g10"><g
       transform="scale(0.1)"
       id="g12"><path
         id="path14"
         style="fill:#264894;fill-opacity:1;fill-rule:nonzero;stroke:none"
         d="m 240,2560 c -132.547,0 -240,107.45 -240,240 0,132.55 107.453,240 240,240 h 4000 c 132.55,0 240,-107.45 240,-240 0,-132.55 -107.45,-240 -240,-240 z m 0,-1280 c -132.547,0 -240,107.45 -240,240 0,132.55 107.453,240 240,240 h 4000 c 132.55,0 240,-107.45 240,-240 0,-132.55 -107.45,-240 -240,-240 z M 240,0 C 107.453,0 0,107.449 0,240 0,372.551 107.453,480 240,480 h 4000 c 132.55,0 240,-107.449 240,-240 C 4480,107.449 4372.55,0 4240,0 H 240" /></g></g></svg>