<?xml version="1.0" encoding="UTF-8" standalone="no"?>
<svg
   xmlns:dc="http://purl.org/dc/elements/1.1/"
   xmlns:cc="http://creativecommons.org/ns#"
   xmlns:rdf="http://www.w3.org/1999/02/22-rdf-syntax-ns#"
   xmlns:svg="http://www.w3.org/2000/svg"
   xmlns="http://www.w3.org/2000/svg"
   viewBox="0 0 775.65332 692.37335"
   height="692.37335"
   width="775.65332"
   xml:space="preserve"
   id="svg2"
   version="1.1"><metadata
     id="metadata8"><rdf:RDF><cc:Work
         rdf:about=""><dc:format>image/svg+xml</dc:format><dc:type
           rdf:resource="http://purl.org/dc/dcmitype/StillImage" /></cc:Work></rdf:RDF></metadata><defs
     id="defs6" /><g
     transform="matrix(1.3333333,0,0,-1.3333333,0,692.37333)"
     id="g10"><g
       transform="scale(0.1)"
       id="g12"><path
         id="path14"
         style="fill:#ffffff;fill-opacity:1;fill-rule:nonzero;stroke:none"
         d="m 5080.92,1743.16 h 0.04 L 5436.84,738.289 c 30.74,-174.328 -22.11,-272.039 -125.65,-272.039 -50.82,0 -113.86,23.539 -185.22,73.102 l -752.94,751.058 c -103.26,-37.38 -210.08,-68.11 -321.89,-87.83 -112.73,-19.87 -224.99,-29.49 -335.62,-29.49 -913.99,0 -1723.48,655.12 -1887.87,1586.54 -184.04,1044.14 512.83,2039.54 1557.02,2223.66 112.74,19.87 225.05,29.48 335.69,29.49 914.11,0.06 1723.73,-655.12 1887.96,-1586.51 112.34,-637.5 -104.65,-1255.48 -527.4,-1683.11 z M 1669.55,727.809 c -85.74,0 -172.78,7.453 -260.15,22.863 -86.67,15.277 -169.46,39.098 -249.49,68.07 L 576.336,236.66 C 521.023,198.242 472.172,180 432.781,180 c -80.254,0 -121.215,75.73 -97.39,210.84 l 275.839,778.81 h 0.028 C 283.602,1501.09 115.43,1980.05 202.5,2474.13 c 127.297,721.86 754.773,1229.59 1463.26,1229.59 14.25,0 28.54,-0.29 42.85,-0.71 -14.09,-46.45 -26.67,-93.47 -37.6,-141.07 -62.88,-274.03 -69.82,-554.48 -20.63,-833.55 43.96,-249.07 130.75,-484.88 257.96,-700.93 122.91,-208.73 280.06,-393.38 467.1,-548.81 122.65,-101.93 255.85,-188.84 396.48,-259.86 C 2495.49,913.102 2097.36,727.809 1669.55,727.809 Z M 5785.59,3457.5 c -43.91,249.03 -130.67,484.84 -257.87,700.89 -122.89,208.73 -280.04,393.37 -467.08,548.82 -376.78,313.12 -852.72,485.57 -1340.15,485.57 h -0.14 c -122.25,-0.01 -245.71,-10.85 -366.94,-32.23 -279.09,-49.21 -540.26,-151.65 -776.26,-304.46 -227.87,-147.56 -422.68,-335.59 -579.03,-558.88 -91.81,-131.14 -167.53,-270.63 -226.8,-416.99 -35.23,2.26 -70.46,3.5 -105.56,3.5 -387.24,0 -765.33,-136.97 -1064.615,-385.66 C 298.266,3246.38 93.7383,2893.85 25.2383,2505.39 -21.8047,2238.45 -2.83594,1961.86 80.0938,1705.5 148.438,1494.24 259.973,1296.46 405.359,1127.54 L 165.719,450.93 c -3.324,-9.379 -5.864,-19.028 -7.59,-28.828 C 128.02,251.371 176.008,150.813 221.566,96.5117 273.789,34.2813 348.801,0 432.781,0 c 78.535,0 161.383,29.8789 246.235,88.8203 8.734,6.0586 16.91,12.8907 24.433,20.3987 l 505.371,504.082 c 57.43,-16.86 113.47,-30.051 169.32,-39.899 96.31,-16.98 194.36,-25.593 291.41,-25.593 387.2,0 765.24,136.961 1064.5,385.652 76.21,63.328 146.11,133.099 209.24,208.179 244.56,-97.24 506.67,-148.55 772.23,-148.55 122.18,0 245.61,10.85 366.87,32.23 79.66,14.04 159.7,33.52 242.34,59.04 l 674.12,-672.438 c 7.52,-7.512 15.7,-14.34 24.43,-20.402 100.57,-69.848 197.43,-105.27 287.91,-105.27 92.64,0 175.21,37.602 232.49,105.859 51.64,61.543 105.77,176.973 70.43,377.43 -1.73,9.813 -4.27,19.453 -7.6,28.84 l -319.38,901.801 c 192.77,217.59 340.28,474.92 429.41,750.43 104.39,322.69 128.26,670.87 69.05,1006.89" /></g></g></svg>