<?xml version="1.0" encoding="UTF-8" standalone="no"?>
<svg
   xmlns:dc="http://purl.org/dc/elements/1.1/"
   xmlns:cc="http://creativecommons.org/ns#"
   xmlns:rdf="http://www.w3.org/1999/02/22-rdf-syntax-ns#"
   xmlns:svg="http://www.w3.org/2000/svg"
   xmlns="http://www.w3.org/2000/svg"
   viewBox="0 0 723.34668 723.33331"
   height="723.33331"
   width="723.34668"
   xml:space="preserve"
   id="svg2"
   version="1.1"><metadata
     id="metadata8"><rdf:RDF><cc:Work
         rdf:about=""><dc:format>image/svg+xml</dc:format><dc:type
           rdf:resource="http://purl.org/dc/dcmitype/StillImage" /></cc:Work></rdf:RDF></metadata><defs
     id="defs6" /><g
     transform="matrix(1.3333333,0,0,-1.3333333,0,723.33333)"
     id="g10"><g
       transform="scale(0.1)"
       id="g12"><path
         id="path14"
         style="fill:#ffffff;fill-opacity:1;fill-rule:nonzero;stroke:none"
         d="M 4943.78,175.109 H 2975.35 c -0.21,0 -0.37,0.161 -0.37,0.36 v 262.14 c 0,48.321 -39.17,87.5 -87.5,87.5 v 0 c -48.33,0 -87.5,-39.179 -87.5,-87.5 v -262.14 c 0,-0.199 -0.16,-0.36 -0.37,-0.36 H 1487.85 c -0.21,0 -0.37,0.161 -0.37,0.36 v 953.461 c 0,0.12 0.06,0.24 0.16,0.31 255.04,176.84 553.18,270.87 864.06,270.87 151.36,0 302.91,-25.01 448.02,-69.84 0.15,-0.05 0.26,-0.2 0.26,-0.36 V 787.609 c 0,-48.328 39.17,-87.5 87.5,-87.5 v 0 c 48.33,0 87.5,39.172 87.5,87.5 V 1264.2 c 0,0.27 0.26,0.44 0.5,0.33 8.45,-3.75 17.32,-6.49 25.67,-10.44 L 3942.2,808.352 c 242.78,-115.012 510.15,-181.293 778.65,-193.633 49.89,-2.289 91.62,37.57 91.62,87.511 v 0 c 0,46.758 -36.75,85.149 -83.46,87.36 -125.6,5.922 -250.88,25.051 -373.14,55.992 -0.1,0.027 -0.19,0.09 -0.24,0.188 L 3728.6,2030.12 c -108.4,205.12 -320,332.5 -552.23,332.5 -62.81,0 -113.91,51.09 -113.91,114.02 0,22.58 6.56,44.45 19.18,63.28 101.91,152.85 155.82,330.9 155.82,514.65 v 424.8 c 0,19.26 30.63,26.41 39.1,9.18 l 274.57,-548.79 12.07,-27.47 c 0.05,-0.12 0.04,-0.25 -0.03,-0.35 -40.4,-57.9 -63.21,-127.63 -63.21,-198.36 0,-142.89 85.67,-269.41 218.32,-322.62 164.41,-65.7 307.58,-175.43 413.87,-317.11 L 5188.75,665.051 C 5228.2,612.398 5250,547.199 5250,481.301 5250,312.43 5112.62,175.051 4943.75,175.051 Z M 174.98,1468.9 c 0,0.32 0.372,0.48 0.606,0.28 l 376.625,-329.43 c 130.551,-114.26 298.008,-177.191 471.369,-177.191 100.71,0 197.92,22.492 288.4,62.511 0.24,0.1 0.51,-0.07 0.51,-0.33 V 175.43 c 0,-0.2 -0.16,-0.371 -0.37,-0.371 H 175.355 c -0.203,0 -0.367,0.171 -0.367,0.371 z m 3869,1986.31 128.36,385 c 1.91,5.86 7.34,9.8 13.48,9.8 7.89,0 14.18,-6.29 14.18,-14.18 v -601.48 c 0,-118.12 8.4,-237.3 24.84,-354.22 33.52,-238.59 100.9,-471.17 200.27,-691.17 l 241.6,-535.09 c 0.18,-0.4 -0.36,-0.72 -0.62,-0.37 l -393.95,525.23 c -125.66,167.46 -294.61,297.07 -488.87,374.69 -65.74,26.29 -108.28,89.1 -108.28,160.08 0,37.03 12.27,73.75 34.49,103.44 145.31,193.59 257.85,408.44 334.49,638.28 z M 5328.68,770.012 5150.81,1007.28 c -0.01,0.02 -0.02,0.04 -0.04,0.06 l -566.19,1253.57 c -92.58,205 -155.23,421.48 -186.45,643.55 -15.35,108.95 -23.13,220 -23.13,329.88 l 0.01,596.42 c 0,99.2 -74.29,185.32 -173.14,193.57 -88.01,7.34 -168.12,-46.36 -195.5,-128.74 l -128.35,-385 c -50.75,-152.21 -119.26,-296.94 -203.09,-432.71 -0.16,-0.25 -0.52,-0.23 -0.65,0.03 l -241.18,489.05 c -33.05,65.92 -99.12,107.25 -172.79,108.04 -108.8,1.15 -197.8,-92.67 -197.8,-201.48 v -418.97 c 0,-149.1 -43.75,-293.48 -126.44,-417.66 -31.84,-47.66 -48.56,-103.12 -48.56,-160.35 0,-159.45 129.57,-289.02 289.02,-289.02 167.11,0 319.38,-91.72 397.5,-239.3 L 4116.41,923.91 c 0.16,-0.301 -0.15,-0.64 -0.47,-0.512 -33.35,13.442 -66.4,27.692 -98.83,43.102 l -940.98,445.74 c -224.96,106.45 -475.35,162.81 -724.41,162.81 -354.8,0 -694.84,-109.02 -983.52,-315.27 l -30.19,-21.53 c -198.98,-142.03 -486.6,-128.09 -670.701,33.17 l -500.563,438.06 c -65,56.88 -166.7381875,10.72 -166.7381875,-75.65 V 147.488 C 0.0078125,66.0313 66.043,0 147.5,0 h 4796.31 c 265.31,0 481.25,215.941 481.25,481.25 0,103.52 -34.22,205.98 -96.33,288.75 l -0.05,0.012" /><path
         id="path16"
         style="fill:#ffffff;fill-opacity:1;fill-rule:nonzero;stroke:none"
         d="m 1837.48,5138.17 v -301.25 c -52.07,30.28 -87.5,86.1 -87.5,150.59 0,64.5 35.43,120.31 87.5,150.66 z m 350,24.34 v -350 h -175 v 350 z m 262.5,-175 c 0,-64.49 -35.43,-120.31 -87.5,-150.66 v 301.33 c 52.07,-30.36 87.5,-86.17 87.5,-150.66 z m -612.5,-337.58 v -12.42 c 0,-48.33 39.18,-87.5 87.5,-87.5 v 0 c 48.32,0 87.5,39.17 87.5,87.5 v 0 h 175 v 0 c 0,-48.33 39.18,-87.5 87.5,-87.5 v 0 c 48.32,0 87.5,39.17 87.5,87.5 v 12.42 c 150.59,39.1 262.5,174.92 262.5,337.58 0,162.66 -111.91,298.48 -262.5,337.58 v 12.42 c 0,48.33 -39.18,87.5 -87.5,87.5 v 0 c -48.32,0 -87.5,-39.17 -87.5,-87.5 v 0 h -175 v 0 c 0,48.33 -39.18,87.5 -87.5,87.5 v 0 c -48.32,0 -87.5,-39.17 -87.5,-87.5 v -12.42 C 1715.06,5293.33 1619.16,5197.43 1587.4,5075.01 H 87.5 c -48.3242,0 -87.5,-39.18 -87.5,-87.5 v 0 c 0,-48.33 39.1758,-87.5 87.5,-87.5 h 1499.9 c 31.76,-122.42 127.66,-218.32 250.08,-250.08" /><path
         id="path18"
         style="fill:#ffffff;fill-opacity:1;fill-rule:nonzero;stroke:none"
         d="m 2624.98,2975.01 c 0,-122.77 -23.98,-239.77 -66.05,-347.81 -256.22,10.94 -516.61,81.91 -748.64,145.7 -214.06,58.94 -416.17,114.61 -585.31,114.61 -238.785,0 -405.117,-75.24 -498.316,-133.59 -16.875,71.13 -26.68,144.88 -26.68,221.09 v 87.5 H 2624.98 Z m -962.5,-962.5 c -390.59,0 -726.949,234.34 -877.699,569.38 52.383,40.15 196.68,130.62 440.199,130.62 145.51,0 336.6,-52.66 538.91,-108.24 218.12,-60.04 460.43,-126.02 708.67,-146.91 -171.25,-267.03 -469.96,-444.84 -810.08,-444.84 z m 262.5,2362.5 v 0 c -48.32,0 -87.5,-39.18 -87.5,-87.5 v -503.83 c 0,-204.41 -76.13,-396.64 -213.59,-546.17 H 666.5 c -78.152,0 -141.512,-63.36 -141.512,-141.51 v -108.47 c 0,-627.66 503.132,-1146.35 1130.782,-1150 630.26,-3.67 1144.22,508.05 1144.22,1137.48 V 3096 c 0,78.15 -63.36,141.51 -141.51,141.51 h -82.4 c -137.46,149.53 -213.59,341.76 -213.59,546.17 v 503.83 c 0,48.32 -39.18,87.5 -87.5,87.5 v 0 c -48.32,0 -87.5,-39.18 -87.5,-87.5 v -503.83 c 0,-197.38 57.85,-385.86 165.27,-546.17 h -505.59 c 107.46,160.31 165.31,348.79 165.31,546.17 v 503.83 c 0,48.32 -39.17,87.5 -87.5,87.5" /></g></g></svg>