<?xml version="1.0" encoding="UTF-8" standalone="no"?>
<svg
   xmlns:dc="http://purl.org/dc/elements/1.1/"
   xmlns:cc="http://creativecommons.org/ns#"
   xmlns:rdf="http://www.w3.org/1999/02/22-rdf-syntax-ns#"
   xmlns:svg="http://www.w3.org/2000/svg"
   xmlns="http://www.w3.org/2000/svg"
   xmlns:sodipodi="http://sodipodi.sourceforge.net/DTD/sodipodi-0.dtd"
   xmlns:inkscape="http://www.inkscape.org/namespaces/inkscape"
   version="1.1"
   id="svg2"
   xml:space="preserve"
   width="1895.9867"
   height="1786.4133"
   viewBox="0 0 1895.9867 1786.4133"
   sodipodi:docname="FloralDevice_LtPastel.eps"><metadata
     id="metadata8"><rdf:RDF><cc:Work
         rdf:about=""><dc:format>image/svg+xml</dc:format><dc:type
           rdf:resource="http://purl.org/dc/dcmitype/StillImage" /></cc:Work></rdf:RDF></metadata><defs
     id="defs6" /><sodipodi:namedview
     pagecolor="#ffffff"
     bordercolor="#666666"
     borderopacity="1"
     objecttolerance="10"
     gridtolerance="10"
     guidetolerance="10"
     inkscape:pageopacity="0"
     inkscape:pageshadow="2"
     inkscape:window-width="640"
     inkscape:window-height="480"
     id="namedview4" /><g
     id="g10"
     inkscape:groupmode="layer"
     inkscape:label="ink_ext_XXXXXX"
     transform="matrix(1.3333333,0,0,-1.3333333,0,1786.4133)"><g
       id="g12"
       transform="scale(0.1)"><path
         d="m 10822.2,7163.73 c -17.7,120.35 647.8,72.29 1099.8,518.45 5.3,5.08 5.6,13.54 0.5,18.9 -3.7,3.85 -9.3,5.17 -14.3,3.37 -148.8,-54.61 -438,-110.84 -751.5,-166.5 -313.3,-55.63 -779.7,-138.9 -837.2,-44.42 -57.6,94.48 455.9,1130.16 727.3,1393.3 355,344.33 994.4,510.19 1892.7,381.4 393,-56.35 861.9,-83.12 1073.1,-112.28 54.6,-7.68 92.5,-58.11 84.9,-112.65 -1.3,-8.91 -3.7,-17.62 -7.3,-25.87 -157.2,-363.95 -656.4,-1263.41 -1333.5,-1657.85 -390.8,-227.65 -834.5,-348.38 -1286.7,-350.05 -378.2,0.02 -638.5,91.01 -647.8,154.19 z M 6606.8,6820.46 c -142.64,196.23 1429,1138.83 1688.9,2389.18 3.28,14.46 -5.79,28.85 -20.26,32.13 -9.34,2.11 -19.11,-0.91 -25.63,-7.93 -212.4,-234.18 -699.3,-896.59 -1176.17,-1314.92 -476.3,-417.83 -1399.06,-1137.28 -1592.79,-961.15 -151,137.31 -328.88,1622.93 -109.81,2869.77 178.43,1016.06 1455.44,2320.56 3220.3,2819.66 970.36,274.5 1597.96,614 1823.16,742.7 29.5,16.9 67.1,6.8 84,-22.7 4.3,-7.5 7,-15.9 7.8,-24.5 50.1,-489.3 238.3,-2894.9 -727.69,-4407.66 C 8802.52,7406.33 7270.47,6773.62 6764.1,6773.72 c -80.33,0 -134.94,15.94 -157.33,46.75 z m -4288,-67.55 C 1667.69,6944.41 935.703,7638.37 569.805,8845.86 368.504,9510.15 99.7734,9996.35 6.32422,10148.5 c -12.28906,19.8 -6.125001,45.9 13.76958,58.2 5.0937,3.2 10.7968,5.2 16.7304,6 335.4728,45.2 1897.0858,186.4 2963.9058,-436.71 1291.34,-754.24 1770.94,-2176.17 1635.9,-2281.25 -131.82,-102.5 -735.31,1009.84 -1601.24,1161.21 -10.03,1.92 -19.73,-4.65 -21.65,-14.68 -1.25,-6.47 1.04,-13.11 6,-17.43 165.78,-141 587,-443.92 865.1,-780.57 278.1,-336.65 676.73,-933.82 601.68,-1053.9 -44.15,-70.67 -615,-121.49 -1178.63,-121.5 -393.99,0 -784.35,24.81 -989.09,85.04 z M 8297.61,2676.8 c -980.64,731.79 -2060.95,2332.6 -1968.56,2517.34 117.09,234.17 1163.56,248.83 1795.84,207.51 633,-41.39 1590.78,-233 1901.91,-289.42 14.6,-2.48 28.4,7.37 30.9,21.99 1.6,9.45 -1.9,19.03 -9.3,25.15 -967.66,833.43 -2944.58,626.52 -2950.99,869 -7.31,278.1 1976,928.25 3951.69,212.21 1687.5,-611.56 2903.3,-2539.63 3161.6,-2958.18 17.9,-28.8 9,-66.7 -19.8,-84.7 -7.4,-4.5 -15.7,-7.5 -24.3,-8.7 -256.9,-35.1 -922.2,-103.4 -1844.5,-511.2 -600.2,-265.3 -1450.6,-420.4 -2242.3,-420.4 -720.57,0.1 -1392.52,128.6 -1782.2,419.4 z M 10.793,772.801 c 96,218.601 384.891,908.699 508.199,1828.799 153.274,1143.64 892.628,2548.22 1726.628,2980.44 1002.57,519.59 3003.35,577.75 3095.35,479.6 109.78,-117.09 -359,-978 -665.83,-1474.84 -306.83,-496.83 -947.77,-1136.75 -1141.6,-1353.8 -8.98,-10.3 -7.92,-26 2.37,-34.9 6.65,-5.8 15.89,-7.7 24.24,-4.8 1119.5,358.93 1875.82,2075.24 2073.69,1971.59 C 5787.5,5084.42 5421.63,3020.7 3909.61,1814.1 2618.19,783.402 515.645,694.801 62.9727,693.301 h -0.25 c -31.2618,0 -56.67192,25.199 -56.75395,56.5 -0.01953,7.898 1.625,15.801 4.82425,23 z M 7366.55,16.4023 C 7188.55,133.703 6845.34,329.301 6512.64,546 c -760.42,495.3 -1131.94,1041.5 -1172,1534.5 -30.6,376.8 265.94,1494.06 371.52,1527.16 105.58,33.1 401.4,-336.96 600.31,-585.36 198.91,-248.3 379.47,-481.4 455.4,-620.5 3.62,-6.5 11.77,-8.8 18.22,-5.2 4.59,2.6 7.25,7.6 6.78,12.9 -45.86,633.4 -643.1,1124.35 -550.44,1203.16 95,80.81 1044.16,-477.56 1390.73,-1510.76 249.24,-743 4.62,-1654.998 -117,-2032.4 C 7502.89,28.1016 7464.4,0 7420.93,0 c -19.34,0 -38.26,5.69922 -54.38,16.4023"
         style="fill:#ccede2;fill-opacity:1;fill-rule:nonzero;stroke:none"
         id="path14" /></g></g></svg>
