<?xml version="1.0" encoding="UTF-8" standalone="no"?>
<svg
   xmlns:dc="http://purl.org/dc/elements/1.1/"
   xmlns:cc="http://creativecommons.org/ns#"
   xmlns:rdf="http://www.w3.org/1999/02/22-rdf-syntax-ns#"
   xmlns:svg="http://www.w3.org/2000/svg"
   xmlns="http://www.w3.org/2000/svg"
   xmlns:sodipodi="http://sodipodi.sourceforge.net/DTD/sodipodi-0.dtd"
   xmlns:inkscape="http://www.inkscape.org/namespaces/inkscape"
   version="1.1"
   id="svg2"
   xml:space="preserve"
   width="3653.3333"
   height="648.56"
   viewBox="0 0 3653.3333 648.56"
   sodipodi:docname="TTC_Text_Blue.eps"><metadata
     id="metadata8"><rdf:RDF><cc:Work
         rdf:about=""><dc:format>image/svg+xml</dc:format><dc:type
           rdf:resource="http://purl.org/dc/dcmitype/StillImage" /></cc:Work></rdf:RDF></metadata><defs
     id="defs6" /><sodipodi:namedview
     pagecolor="#ffffff"
     bordercolor="#666666"
     borderopacity="1"
     objecttolerance="10"
     gridtolerance="10"
     guidetolerance="10"
     inkscape:pageopacity="0"
     inkscape:pageshadow="2"
     inkscape:window-width="640"
     inkscape:window-height="480"
     id="namedview4" /><g
     id="g10"
     inkscape:groupmode="layer"
     inkscape:label="ink_ext_XXXXXX"
     transform="matrix(1.3333333,0,0,-1.3333333,0,648.56)"><g
       id="g12"
       transform="scale(0.1)"><path
         d="M 27400,2102.54 V 2085 c -8.8,-4.44 -4.4,-30.78 -17.6,-57.13 -30.7,-39.48 -52.7,-92.17 -92.2,-131.69 -26.3,-8.79 -17.5,-30.73 -30.7,-17.56 -43.9,-39.52 -79.1,-43.9 -127.3,-43.9 -13.2,0 -35.1,-13.17 -52.7,-8.79 -21.9,13.17 -65.9,8.79 -87.8,8.79 -70.3,0 -272.2,136.09 -285.4,149.26 -17.6,17.59 -83.4,118.57 -92.2,122.95 -54.3,156.14 -96.9,316.1 -127.3,478.57 -39.6,-26.36 -61.5,-39.52 -96.6,-83.42 -26.4,-30.73 -57.1,-57.09 -74.7,-109.78 -17.5,-26.29 -92.2,-140.49 -109.7,-140.49 -8.8,0 -8.8,-61.46 -13.2,-61.46 -4.4,-13.17 -26.4,-83.42 -26.4,-101 -74.6,0 35.2,-87.82 -101,-140.51 -263.4,-30.71 -399.5,232.68 -399.5,425.88 0,79 -4.4,153.68 -4.4,237.1 -4.4,131.69 -17.6,241.47 -17.6,364.42 0,17.54 -22,22 -22,57.07 0,30.73 17.6,35.15 30.8,65.88 35.1,30.73 175.6,144.86 250.2,144.86 54.7,1.68 106.8,-22.78 140.5,-65.86 22,-43.9 30.8,-101 48.3,-144.88 -13.1,-13.17 -8.8,-70.25 -8.8,-70.25 V 2813.8 c 0,-30.73 -21.9,-83.42 -21.9,-122.9 v -180 c 0,-61.48 0,-184.39 4.4,-250.27 101,162.47 215.1,316.15 289.8,390.78 48.3,48.27 48.3,101 87.8,153.65 74.6,74.63 166.8,153.68 267.8,153.68 123,0 184.4,-149.3 188.8,-237.1 0,-127.32 4.4,-122.95 13.2,-237.1 4.4,-13.17 136.1,-540 250.2,-540 79,0 162.5,114.15 215.2,166.8 4.4,0 13.2,-8.75 22,-8.75 m -3942.4,-39.57 -26.3,13.17 c 0,39.52 197.6,180 232.7,188.78 0,-57.07 -158,-175.59 -206.4,-201.95 m 2085.4,439.23 c -66,-105.54 -123,-175.77 -202,-268.05 -13.2,-13.17 -202,-197.58 -272.2,-197.58 -9,-0.69 -18.1,0.81 -26.4,4.37 -13.2,39.52 -21.9,44 -30.7,123 -4.4,96.59 -17.6,162.47 -13.2,206.37 0,35.11 0,153.68 4.4,193.18 0,21.94 8.8,39.48 13.2,61.46 8.8,52.69 8.8,22 13.1,149.3 -8.7,39.48 8.9,57.07 13.2,83.42 8.8,61.44 -39.5,188.76 -87.8,193.13 l -52.7,8.81 c -26.3,-13.19 -83.4,-4.37 -109.7,-17.56 -57.1,-30.75 -74.7,-70.23 -118.6,-105.38 -35.6,-28.51 -54.5,-50.76 -67.8,-92.13 -143.3,-60.45 -381.5,-163.39 -406.1,-175.7 l -13.2,8.79 c 15.4,31.58 24.4,65.92 26.3,101 0,303 -1036.1,522.47 -1036.1,636.6 0.8,51.95 8.2,103.58 22,153.68 -4.4,17.56 0,43.92 -4.4,48.32 26.3,105.36 26.3,263.41 57.1,395.15 h -4.5 c 0,219.51 52.8,245.85 136.2,439 26.3,57.09 43.9,140.51 48.3,197.58 -4.5,114.19 -70.4,193.25 -210.9,215.19 -101,0 -250.2,-65.84 -320.5,-140.51 -8.5,-29.3 -23.5,-56.31 -43.9,-79 0,-65.88 8.8,-70.25 8.8,-122.95 74.6,-118.53 92.2,-144.88 92.2,-285.37 8.7,0 8.7,61.44 8.7,-333.69 v -114.15 c -13.1,-13.19 0,-74.67 -8.7,-96.61 0,-26.33 -8.8,-131.69 0,-153.66 -4.4,-30.73 -4.4,-26.36 -13.2,-26.36 -61.5,35.15 -109.7,26.36 -166.8,52.69 -197.6,13.19 -153.7,-57.07 -245.9,-92.22 -4.4,-17.54 -17.6,-39.52 -13.2,-61.44 4.4,-193.2 -4.4,-105.4 61.5,-245.91 52.7,-48.27 92.2,-109.71 202,-131.69 30.7,-8.79 158,0 158,-48.27 -6.7,-13.5 -18.6,-313.4 -15.9,-468.42 -102.5,-196.78 -341.3,-532.67 -488.8,-532.67 -17.6,0 -35.2,8.79 -52.7,13.17 -20.7,45.51 -31.2,94.96 -30.8,144.93 0,118.53 13.2,320.48 52.7,434.67 22,61.44 79,131.69 79,197.58 0,43.9 -96.6,105.34 -140.5,105.34 -17.5,0 -87.8,-21.92 -101,-35.11 -39.5,8.77 -175.6,-122.95 -175.6,-166.84 0,-30.71 30.8,-39.52 39.5,-65.86 -87.8,-206.37 -219.5,-417.13 -408.3,-544.45 h -13.1 l -13.2,22 v 43.9 c 4.5,-4.37 0,57.07 -13.2,79 v 39.5 c 26.4,43.94 43.9,101 30.8,144.91 92.2,289.75 83.4,386.36 241.5,553.2 35.1,13.17 118.5,22 149.2,4.37 145,0 206.4,-8.75 307.4,109.78 8.8,35.15 13.2,101 -13.2,127.32 -21.9,57.07 -193.2,109.78 -250.2,109.78 -57.1,0 -197.6,-65.88 -254.7,-92.19 -4.4,-4.42 -26.4,-13.17 -26.4,-17.59 -43.9,-57.07 -188.7,-127.32 -254.6,-223.93 0,-39.46 -136.1,-206.32 -171.2,-232.66 -17.6,-79 -65.9,-162.47 -101,-232.72 0,-26.36 -4.4,-39.52 -4.4,-70.25 -13.2,-17.54 -30.8,-43.9 -30.8,-65.81 17.6,-52.71 17.6,-118.57 17.6,-166.87 0,-109.76 245.9,-342.48 351.3,-342.48 35.1,0 118.5,39.52 144.8,61.51 4.4,30.71 35.1,39.5 61.5,48.27 17.6,83.42 118.6,87.8 118.6,127.32 0,35.15 8.7,-4.37 13.1,30.73 52.7,13.17 74.7,79 105.4,118.55 h 4.4 c 39.5,-114.13 118.5,-390.75 272.2,-390.75 136.1,0 298.5,70.25 346.9,206.37 l 39.4,21.92 c 39.6,52.71 65.9,118.57 114.2,162.47 l 4.4,43.9 c 19.1,14.2 35.4,31.68 48.3,51.61 -0.1,-30.34 -0.1,-72.21 -0.1,-130.64 8.8,0 0,-39.52 0,-39.52 30.7,-193.16 -13.2,-373.19 158,-395.15 l 35.1,22 c 43.9,127.34 8.8,180 35.2,259 -8.8,39.52 -8.8,30.78 0,57.07 -22,70.25 -8.8,140.51 -8.8,210.74 13.1,4.44 -13.2,109.78 8.8,131.76 8.7,144.86 0,364.42 0,482.95 0,26.33 39.4,30.71 57,35.15 26.3,-8.81 13.2,-8.81 57.1,0 39.5,-17.61 101,-17.61 136.1,-43.9 70.3,0 131.8,-30.77 197.6,-39.55 70.2,-35.13 210.7,-92.21 210.7,-188.8 4.5,-30.57 4.5,-61.62 0,-92.19 -8.7,-26.33 -8.7,-17.59 -4.4,-57.07 l -17.5,-52.69 c -17.6,-65.88 -61.5,-61.46 -131.8,-105.4 -61.4,-48.27 -127.3,-118.53 -202,-166.8 -79,-70.25 -144.8,-136.11 -144.8,-210.74 0,-61.51 48.3,-131.76 114.1,-131.76 127.4,0 592.7,474.2 667.4,605.89 92.8,46.43 345.6,171.11 491.6,227.19 -1.5,-10.71 -2.9,-21.92 -4.5,-34 -4.4,-52.71 -4.4,-105.36 -8.7,-158.05 -4.5,-8.81 -8.8,-96.61 -8.8,-127.34 -4.4,-30.71 0,-65.86 22,-87.84 1.2,-54.54 7.1,-108.88 17.5,-162.43 8.8,-43.9 48.3,-61.44 74.6,-101 52.8,-35.15 131.8,-149.3 210.8,-158.1 l 61.5,-4.4 c 13.2,-13.17 30.7,-8.73 48.3,4.4 39.5,4.42 83.4,26.33 136.1,70.28 92.2,43.9 153.7,109.73 197.6,149.26 39.5,35.15 83.4,96.61 109.7,109.78 35.1,13.17 144.9,215.12 153.7,228.28 -26.3,35.15 17.6,22 17.6,52.71 0,57.07 13.1,26.36 13.1,48.27 0,0 -13.1,57.07 -79,-43.9 m -737.5,1453.53 c -8.8,39.48 -13.2,127.32 -35.2,166.84 0,140.51 162.5,188.78 263.5,188.78 14.5,2.74 29.4,2.74 43.9,0 87.8,-13.19 215.1,-153.68 215.1,-241.47 v -43.9 c -30.7,-79 -79,-188.83 -171.2,-206.39 -87.8,-13.17 -87.8,13.19 -149.3,13.19 -43.9,-8.79 -162.4,118.53 -166.8,122.95 m -3533.1,-318.67 c -35.8,-204.76 -171.9,-314.85 -386.7,-265.21 l -89.7,68.41 c -86.4,85.88 -73.8,341.1 -172.6,370.22 -102,19.74 -221.3,64.32 -297.5,48.36 -130.1,-27.24 -193.5,-144.64 -258.1,-238.51 -98.3,-142.91 -198.4,-331.38 -179.8,-490.77 11.7,-100.81 27.4,-250.51 -0.7,-353.67 23,-42.93 56.6,-51.5 47.4,-103.87 -41.6,-238.09 207.2,-619 438.5,-690.85 31.3,4.68 67.4,-20.77 97.1,-25.59 286.9,-46.65 431.2,-16.66 658.5,138.38 21.6,14.73 68.3,19.94 72,-5.3 l -37.8,-76.76 c -224.5,-267.1 -462.6,-279.83 -828.1,-220.41 -143.2,23.3 -327.5,131.61 -445.1,214.39 -36.9,108.83 -90.5,63.66 -130.7,124.09 -314.5,467.34 -358.8,565.29 -359.5,1055.1 5.1,57.94 37.3,96.74 49,163.44 -17,135 91.9,232.24 84,360.84 42.2,96 109.6,45.85 174.3,299.77 8.4,47.61 127.9,91.84 165,159.26 224.3,120.24 483,205.49 739,159 5,-0.81 223.9,-85.36 256.8,-100.52 207.3,-92.48 440.6,-385 404.8,-589.78 M 17616.3,1686.17 c -8.8,-65.95 -334.1,-712.201 -413.2,-707.818 -17.6,4.398 -57.2,43.998 -66,52.758 2.9,45.86 14.8,90.7 35.2,131.89 65.9,136.31 145.1,342.92 334.1,483.61 22,13.19 83.5,70.34 109.9,70.34 z m 391.3,448.33 c 13.2,255 -13.2,466 -4.4,611.08 35.2,378.09 -281.4,329.73 -408.9,184.65 -101.1,-127.5 -109.9,-285.77 -202.2,-470.42 -175.9,-360.48 -360.5,-422.06 -426.4,-386.86 -88,48.36 -123.1,259.39 -118.8,281.37 4.4,127.47 -4.4,211 39.6,277 26.4,35.17 17.6,61.55 52.8,96.74 17.6,17.56 118.7,175.83 118.7,224.2 l 4.4,70.34 c -13.2,22 -26.4,74.74 -30.8,96.72 -20,21.18 -42.1,40.32 -65.9,57.15 -8.8,4.4 -44,48.36 -92.4,57.15 -22,-8.79 -61.5,4.4 -79.1,4.4 -61.6,-13.19 -105.5,-48.36 -158.3,-70.34 -8.8,-26.38 -48.3,-52.76 -65.9,-74.74 -66,0 -35.2,-57.15 -92.4,-79.14 -22,-13.19 -8.7,-57.15 30.8,-149.48 44,-52.76 44,-140.69 35.2,-211 l -4.4,-197.84 c 8.8,-13.17 8.8,-92.32 0,-105.51 17.6,-158.27 -17.6,-312.15 131.9,-448.41 35.2,-22 145.1,-74.74 197.8,-83.53 48.4,-8.79 70.4,4.37 109.9,17.59 109.9,65.95 378.1,312.12 378.1,307.75 83.6,101.12 197.8,219.8 255,255 48.4,-17.59 57.2,-167.06 57.2,-219.82 -4.5,-39.57 4.4,-105.51 -4.5,-145.08 l -8.7,-92.32 c 0,-4.4 -105.5,-74.76 -131.9,-92.32 -79.2,-57.15 -136.3,-131.89 -215.4,-184.65 -96.7,-114.31 -189,-237.41 -250.6,-378.09 l -4.4,-61.55 c -8.8,-30.78 -44,-61.55 -52.8,-136.29 -52.7,-65.95 -114.3,-259.391 -123.1,-356.09 -4.4,-35.191 0,-74.758 0,-109.91 -8.8,-96.738 105.5,-259.391 215.4,-268.18 83.6,-8.789 105.6,13.192 184.7,61.532 13.2,39.589 57.1,74.757 57.1,114.328 4.4,26.379 4.4,65.949 30.8,92.32 4.4,96.699 96.7,167 145.1,241.801 65.9,127.5 180.2,268.159 237.4,426.429 8.8,26.38 48.4,83.53 48.4,87.93 0,35.17 -17.6,30.8 13.2,79.14 22,30.78 17.6,79.14 48.3,105.51 l 4.4,52.76 c 0,44 44,96.72 48.4,127.5 l 39.5,158.27 c 13.2,30.75 52.8,39.57 101.2,39.57 87.9,0 96.7,-13.19 131.8,-30.8 83.6,153.87 -74.7,277 -175.8,224.24 m -2598.3,52.6 c -8.8,-39.59 -149.4,-35.19 -268.1,13.19 -0.7,10.45 0.8,20.94 4.4,30.78 l -22,44 c 22,35.17 17.6,30.75 8.8,65.92 10.2,25.88 19,52.31 26.3,79.16 8.8,65.95 4.4,171.44 0,237.38 17.6,17.59 26.4,79.14 17.6,79.14 h -13.2 c 22,39.57 52.8,96.72 35.2,136.29 l 48.3,101.12 4.5,-8.79 c 101.1,26.38 316.5,83.53 413.2,74.74 127.5,-13.19 268.2,-83.53 263.8,-233 -57.2,-259.39 -312.2,-518.76 -518.8,-619.87 m -1683.9,641.85 c 0,-30.77 48.4,-39.57 48.4,-65.95 -57.1,-285.77 -246.2,-580.31 -496.8,-694.61 h -13.2 l -13.2,22 -30.8,44 c 4.4,-4.42 0,57.13 -17.6,79.11 v 39.59 c 22,43.94 39.6,101.12 22,145.08 83.6,290.14 92.4,386.86 250.6,553.93 39.6,13.19 131.9,22 162.7,4.4 87.9,0 145.1,-4.4 197.9,8.79 -48.4,-39.57 -114.4,-105.51 -109.9,-136.29 m 2514.7,116.37 c 0,26.38 -26.4,61.55 -22,61.55 -4.4,61.55 -131.9,136.29 -180.3,175.86 -114.3,26.38 -145.1,70.34 -294.6,83.53 -26.3,-8.79 -57.1,0 -87.9,-4.4 l -369.3,-30.77 v 17.59 c 48.4,52.76 -48.3,140.69 -87.9,83.53 -92.3,-136.29 -96.7,-189 -193.4,-145.08 -8.8,-44 -145.1,-44 -184.7,-52.76 -39.6,-8.76 -70.3,-61.55 -118.7,-52.76 -127.5,-96.72 -197.8,-57.15 -206.6,-241.8 -4.4,-65.95 61.5,-171.46 189,-175.86 114.3,101.12 189,127.5 290.1,184.65 2.3,-8.65 3.7,-17.48 4.4,-26.38 -87.9,-378.09 -637.4,-808.92 -835.3,-808.92 -22,0 -44,8.79 -61.5,13.17 -19.2,39.69 -28.2,83.5 -26.2,127.52 -8.8,118.68 35.1,426.43 70.3,540.76 17.6,61.53 70.4,131.89 65.9,197.82 -4.3,44 -153.8,127.5 -197.8,127.5 -17.6,0 -74.7,-17.59 -101.1,-30.77 17.6,13.19 35.2,39.57 61.6,65.95 4.3,35.17 4.3,101.12 -22,127.5 -22,57.15 -202.3,109.91 -263.8,109.91 -61.6,0 -211,-65.95 -268.2,-92.32 -13.2,-4.4 -35.2,-13.19 -35.2,-17.59 -44,-57.15 -197.8,-127.5 -263.8,-224.22 4.4,-39.57 -136.3,-206.63 -175.8,-233 -13.2,-79.14 -61.6,-162.65 -92.4,-233 4.4,-26.38 0,-39.55 0,-70.34 -13.1,-17.59 -30.7,-44 -30.7,-65.95 22,-52.73 0,-131.89 0,-180.23 8.8,-109.91 255,-351.71 369.3,-351.71 39.5,0 153.8,22 184.6,39.57 0,30.78 61.6,52.76 87.9,61.55 92.4,57.15 206.7,233 233,272.58 l 26.4,35.17 c 48.4,-281.37 219.8,-457.23 400.1,-457.23 224.2,0 364.9,153.87 466,259.39 39.5,52.76 175.8,175.86 290.1,290.16 26.4,13.17 66,83.53 105.5,189 -8.8,-136.29 -17.6,-268.18 -13.2,-298.93 13.2,-44 -22,-153.87 0,-211.05 -13.2,-48.34 -13.2,-96.7 -13.2,-140.66 13.2,-22 26.4,-48.36 4.4,-61.55 l -8.7,-79.16 c 0,-26.36 22,-61.53 0,-74.72 0,-13.19 -66,-571.53 -70.4,-659.458 0,-17.59 -8.8,-109.891 -8.8,-109.891 -44,-175.859 44,-351.711 -83.5,-496.801 -44,-22 -44,-48.359 -87.9,-35.171 l -39.6,-26.379 c 52.8,-79.141 145.1,-127.5 180.2,-215.418 C 14855.3,35.1914 14903.7,0 14982.8,0 c 109.9,0 167.1,87.9297 158.3,184.652 -13.2,136.289 -22,325.34 -48.4,593.496 -4.4,65.954 0,158.293 0,224.242 8.8,30.75 4.4,61.53 8.8,87.93 4.4,96.7 -13.2,101.1 0,193.42 0,22 4.4,118.7 13.2,140.69 -13.2,13.19 -13.2,4.4 0,44 -13.2,30.78 -8.8,448.44 17.6,536.34 26.4,-48.34 61.5,-87.91 105.5,-105.51 57.2,-17.56 118.7,-22 162.7,-57.13 338.5,52.76 567.1,294.54 707.8,624.27 35.1,87.93 136.3,272.6 140.7,325.34 0,13.21 0,48.36 13.1,52.76 -11.5,32.66 -18.8,66.63 -22,101.12 m -5561.3,76.85 c 4.4,-4.4 4.4,-4.4 4.4,-17.59 0,-158.27 -171.5,-281.37 -285.8,-281.37 -52.7,0 -65.9,0 -101.1,17.59 39.6,237.41 211,268.18 382.5,281.37 M 12723,2921.35 c 4.4,13.19 8.8,13.19 8.8,17.59 8.8,13.19 -65.9,123.1 -70.3,149.48 -74.7,44 -123.1,114.31 -206.6,114.31 l -57.2,4.4 -39.5,-4.4 c -26.4,-8.79 -101.2,-26.38 -114.3,-39.57 -193.5,-105.51 -343,-488 -378.1,-479.19 -26.4,13.17 70.3,202.21 61.5,268.16 -13.2,65.95 -35.2,171.46 -118.7,171.46 -57.1,0 -175.8,-30.77 -233,-61.55 -101.1,-52.76 -175.8,-127.5 -237.4,-202.24 -53.5,-45.81 115.2,-51.88 151.9,-130.44 -70.5,-89.23 -200.6,-211.64 -235.4,-243.23 -123.1,-118.73 -197.8,-149.48 -351.7,-259.39 -105.5,-57.18 -241.8,-118.73 -347.3,-118.73 -61.5,0 -167.1,17.59 -206.6,109.91 -26.4,61.55 -39.6,74.76 -39.6,171.46 0,0 -8.8,65.95 35.2,74.76 l 114.3,-4.42 c 105.5,0 299,87.93 338.5,127.5 35.2,35.17 79.1,92.32 114.3,136.29 v 48.38 c 35.2,52.74 8.8,26.36 8.8,74.72 22,83.53 13.2,44 -13.2,145.08 -35.2,13.19 -26.4,65.95 -48.3,96.72 -44,70.34 -131.9,83.53 -189,114.31 -8.8,4.4 -88,35.17 -114.4,35.17 -131.8,-4.4 -162.6,-52.76 -228.5,-96.72 -22,-13.19 -44,-4.4 -61.6,-17.59 -30.8,-26.38 -79.1,-96.72 -136.3,-149.48 -8.8,-17.59 -65.9,-105.51 -109.9,-105.51 -22,0 -57.18,13.19 -83.53,13.19 -17.61,0 -52.76,13.19 -70.34,13.19 -65.95,0 -74.74,-17.59 -114.31,-65.95 -8.79,-4.4 -13.19,-52.76 0,-79.11 39.57,-74.76 35.17,-44 96.72,-96.74 22,-8.79 70.32,-17.59 87.93,-35.15 65.93,-48.38 57.15,-35.19 65.93,-79.16 0,-22 -8.77,-153.87 8.8,-167.06 35.2,-158.27 123.1,-307.75 255,-395.68 44,-17.56 70.4,-22 105.6,-35.15 21.5,-6.5 43.5,-10.92 65.9,-13.19 l 57.1,-4.4 c 114.3,-13.21 290.2,87.93 329.8,109.91 103.6,66.13 203.4,138.05 299,215.42 57.1,61.55 123.1,105.51 158.2,171.46 26.4,8.77 70.4,35.15 79.2,70.34 68.1,46.32 110.9,114.55 139.8,162.91 0.5,-8.84 0.8,-20.14 0.8,-35.41 -22,-13.21 0,-224.24 0,-241.8 -26.4,-13.21 -8.8,-57.18 -8.8,-79.16 l -8.8,-180.23 c -17.6,-140.71 66,-197.84 158.3,-215.42 -4.4,13.19 57.1,13.19 79.1,13.19 0,4.4 79.2,83.51 79.2,101.1 l 13.2,145.1 c 8.7,52.74 22,171.46 44,215.42 35.1,83.51 70.3,158.27 101.1,197.84 74.7,109.91 206.6,237.38 298.9,237.38 h 35.2 c 39.6,-17.56 48.4,-61.53 87.9,-127.47 92.3,-44 167,-39.59 237.4,13.17 4.4,0 57.2,22 61.6,35.17 13.2,26.38 65.9,109.91 65.9,114.31 z M 9944.78,2204.91 c 4.38,-30.77 -30.77,-52.76 -44,-92.32 -8.79,-4.4 -153.87,-149.48 -153.87,-149.48 -48.36,-35.17 -96.72,-96.72 -167.06,-105.51 -24.74,-3.61 -49.75,-5.08 -74.74,-4.4 -136.29,-4.4 -382.49,250.57 -448.44,466 -44,-87.91 -87.93,-189 -118.7,-268.16 -26.38,-13.21 -44,-74.74 -44,-96.72 -22,-65.95 -17.59,-83.53 -65.95,-105.51 -17.59,-4.4 -39.57,-8.79 -52.76,-30.77 -83.53,-8.79 -118.7,22 -153.88,17.59 -96.72,-8.79 -241.78,180.23 -250.6,281.37 l -13.17,140.66 c -13.19,96.74 8.79,294.58 22,391.28 35.15,206.65 52.76,417.66 79.11,624.29 26.4,193.42 48.38,391.26 61.55,584.7 0,13.21 22,87.93 22,96.74 l -8.79,44 c -2.27,29.52 7.21,82.5 16.29,131.08 -47.27,11.29 -95.35,18.91 -143.79,22.8 -13.21,-13.21 -52.76,-4.42 -65.95,0 -233,-13.21 -461.62,8.77 -690.24,13.17 0,-4.4 -87.93,-17.59 -87.93,-17.59 0,-52.76 -8.79,-109.91 8.79,-162.67 0,0 -22,-109.89 -8.79,-145.08 0,-44 0,-193.42 -22,-224.2 4.4,-35.17 -22,-215.42 -17.59,-219.82 -11.93,-53.5 -19.29,-107.92 -22,-162.67 -22,-26.38 -13.19,-70.34 -13.19,-105.51 7.11,-13.51 10.16,-28.79 8.79,-44 -0.04,-39.92 -4.46,-79.72 -13.19,-118.68 8.79,-26.4 4.4,-22 -4.4,-52.78 4.4,-44 0,-109.91 0,-153.87 -13.19,-26.38 -4.4,-48.36 -13.19,-83.53 8.79,-22 8.79,39.57 -8.79,-338.5 -13.19,-22 -13.19,-22 -4.4,-44 -4.4,-61.55 -13.19,-197.84 -44,-250.6 3.38,-3.51 4.99,-8.35 4.4,-13.19 0,-22 -17.59,-17.59 0,-52.76 -22,-57.15 -57.15,-255 -136.27,-255 -35.19,0 -96.72,65.95 -96.72,101.12 4.37,101.12 22,294.56 17.56,395.68 v 140.59 c -4.4,13.19 -26.38,597.89 -35.17,685.82 8.79,17.59 8.79,13.19 0,35.17 4.42,48.36 -26.36,158.27 -4.37,193.44 -13.19,35.17 -26.4,171.44 -17.61,197.84 -22,48.36 4.42,109.91 -13.19,162.67 7.34,48.23 5.86,97.38 -4.37,145.08 0,8.79 13.19,39.55 13.19,52.76 0,109.91 -17.61,219.8 -35.17,329.71 -175.86,-4.37 -562.74,-4.37 -707.82,-74.72 -57.15,-26.4 -96.72,-83.53 -149.48,-114.33 -48.36,-30.75 -127.5,-44 -184.65,-44 -96.72,0 -219.82,131.89 -215.42,228.64 35.17,70.32 -26.36,48.34 79.14,162.65 61.55,26.38 123.1,39.57 184.65,52.78 26.38,-13.21 30.77,-4.42 57.15,0 35.17,-8.81 123.1,-13.21 145.08,-30.8 35.17,0 74.74,-4.4 109.91,-4.4 57.15,0 109.91,30.77 171.46,30.77 149.48,0 298.93,13.19 452.81,13.19 26.4,0 57.18,0 79.16,13.21 39.55,-22 145.06,35.15 184.63,52.74 70.34,-35.17 70.34,22 167.06,-65.95 l 114.31,4.4 c 246.2,0 725.41,-87.93 940.83,-158.27 11.89,-2.37 23.76,-8.51 35,-11.63 0.64,5.31 0.71,10.68 0.2,16 0.66,6.2 -0.9,12.43 -4.4,17.59 17.59,105.51 74.74,149.48 167.06,158.27 109.91,13.19 193.44,-83.53 202.24,-167 0.62,-10.23 5.38,-19.76 13.19,-26.4 4.4,-61.53 0,-92.32 4.4,-149.46 4.84,-26.28 -1.54,-53.39 -17.59,-74.76 -48.36,-92.3 -57.15,-175.86 -101.12,-272.56 -17.59,-44 -17.59,-101.12 -30.78,-145.08 -13.41,-51.88 -22.24,-104.84 -26.38,-158.27 0,-87.93 -35.17,-140.69 -22,-250.6 8.79,-74.74 -26.38,-162.67 -17.59,-246.2 4.4,-52.76 -8.79,-87.93 -4.4,-131.89 13.19,-123.08 4.4,-193.42 4.4,-316.52 -1.02,-64.6 1.92,-129.2 8.79,-193.44 13.19,-184.65 22,-211 30.77,-206.63 48.36,4.4 224.22,364.88 219.82,378.09 0,17.59 -17.59,79.14 -22,96.7 0,22 52.76,83.53 57.15,101.12 61.55,48.36 109.91,140.69 202.24,149.5 l 52.76,8.77 c 87.93,8.81 136.29,-87.93 140.69,-145.06 8.79,-92.35 -48.36,-189 -39.57,-277 0.82,-10.34 2.29,-20.62 4.4,-30.77 4.4,-44 65.95,-329.73 206.63,-351.71 13.19,-4.4 149.48,39.55 233,140.69 30.77,26.38 70.32,92.33 105.49,131.89 13.21,13.19 13.21,-65.95 13.21,-65.95 m -5090.83,782.7 c 8.79,0 4.4,-8.79 0,-26.38 -26.38,-211 -211,-378.09 -316.52,-378.09 -48.38,0 -61.57,0 -92.35,26.38 83.55,316.54 255,386.89 408.87,378.09 m 237.34,-787.06 c -44,13.17 -44,-30.8 -61.55,-44 -123.1,-74.76 -277,-87.93 -356.11,-92.35 -57.15,4.42 -215.42,39.57 -215.42,131.89 -8.77,65.95 -44,65.95 -22,162.69 0,0 -4.37,65.95 39.57,74.72 l 114.31,-8.77 c 105.51,0 307.75,87.93 360.51,127.5 39.57,35.15 87.93,92.3 127.5,136.27 l 17.59,48.36 c 39.57,52.76 8.79,26.38 13.19,74.74 35.17,83.53 17.59,44 13.19,145.08 -35.17,13.19 -22,65.95 -39.57,96.72 -35.17,70.34 -118.7,83.53 -171.46,114.31 -4.4,4.4 -83.53,35.17 -109.91,35.17 -131.87,-4.4 -171.46,-52.76 -241.78,-92.32 -22,-13.19 -44,-4.4 -61.57,-17.59 -39.57,-26.38 -96.72,-96.72 -162.67,-149.48 -8.79,-17.59 -118.7,-96.72 -167,-180.25 -13.19,-17.59 -79.14,74.76 -105.51,83.53 -149.48,48.36 -189,-184.63 -83.53,-224.22 22,-8.79 65.95,-17.59 83.53,-35.17 61.55,-48.36 26.38,-79.11 30.77,-123.08 l -8.79,-167.09 c -1,-11.43 -1.45,-22.58 -1.65,-33.57 -33.61,-39.94 -70.43,-99.8 -99.47,-124.68 -83.53,-101.14 -219.82,-145.08 -233,-140.71 -140.69,22 -202.24,307.75 -206.63,351.71 -2.11,10.16 -3.58,20.45 -4.4,30.8 -8.79,87.93 48.36,184.63 39.57,277 -4.4,57.15 -52.76,153.87 -140.69,145.08 l -52.76,-8.77 c -92.32,-8.81 -140.69,-101.14 -202.24,-149.5 -4.4,-17.59 -57.15,-79.14 -57.15,-101.12 4.42,-17.59 22,-79.11 22,-96.7 4.42,-13.21 -171.44,-373.7 -219.82,-378.09 -8.79,-4.42 -17.56,22 -30.77,206.63 -6.85,64.24 -9.78,128.84 -8.77,193.44 0,123.08 8.77,193.44 -4.42,316.52 -4.37,44 8.81,79.14 4.42,131.89 -8.79,83.53 26.38,171.46 17.56,246.2 -13.17,109.91 22,162.67 22,250.6 4.15,53.43 12.98,106.39 26.4,158.27 13.19,44 13.19,101.12 30.75,145.08 44,96.7 52.76,180.25 101.14,272.56 16.04,21.37 22.41,48.48 17.56,74.76 -4.37,57.13 0,87.93 -4.37,149.46 -7.82,6.63 -12.58,16.17 -13.19,26.4 -8.79,83.51 -92.35,180.23 -202.26,167 -92.3,-8.79 -149.46,-52.76 -167,-158.27 3.48,-5.17 5.03,-11.4 4.37,-17.59 0.51,-5.32 0.44,-10.69 -0.2,-16 -11.21,3.12 -23.08,9.25 -35,11.63 -215.42,70.34 -694.64,158.27 -940.81,158.27 l -114.33,-4.4 c -96.72,87.93 -96.72,30.77 -167,65.95 -39.72,-17.57 -145.24,-74.7 -184.78,-52.7 -22,-13.21 -52.76,-13.21 -79.14,-13.21 -153.87,0 -303.35,-13.19 -452.83,-13.19 -61.551,0 -114.309,-30.77 -171.461,-30.77 -35.168,0 -74.738,4.4 -109.91,4.4 -22,17.59 -109.91,22 -145.078,30.8 -26.379,-4.42 -30.77,-13.21 -57.129,0 -61.57,-13.21 -123.121,-26.4 -184.6525,-52.78 C -26.25,4205.11 35.3008,4227.09 0.128906,4156.77 -4.28906,4060.03 118.809,3928.14 215.539,3928.14 c 57.152,0 136.313,13.21 184.652,44 52.758,30.8 92.321,87.93 149.481,114.33 145.078,70.34 531.998,70.34 707.818,74.72 17.59,-109.91 35.17,-219.8 35.17,-329.71 0,-13.21 -13.19,-44 -13.19,-52.76 10.24,-47.69 11.73,-96.85 4.4,-145.08 17.59,-52.76 -8.79,-114.31 13.19,-162.67 -8.79,-26.4 4.4,-162.67 17.59,-197.84 -22,-35.17 8.79,-145.08 4.4,-193.44 8.79,-22 8.79,-17.59 0,-35.17 8.79,-87.93 30.77,-672.65 35.17,-685.82 v -140.71 c 4.4,-101.1 -13.19,-294.54 -17.59,-395.68 0,-35.15 61.55,-101.1 96.72,-101.1 79.11,0 114.31,197.84 136.29,255 -17.59,35.19 0,30.8 0,52.78 0.6,4.83 -1.03,9.68 -4.42,13.17 30.8,52.78 39.59,189.07 44,250.62 -8.79,22 -8.79,22 4.42,44 17.56,378.07 17.56,316.52 8.77,338.5 8.79,35.17 0,57.15 13.21,83.53 0,44 4.4,109.91 0,153.87 8.77,30.77 13.19,26.38 4.4,52.76 8.72,38.97 13.14,78.77 13.17,118.7 1.37,15.21 -1.68,30.49 -8.79,44 0,35.17 -8.77,79.14 13.21,105.51 2.7,54.75 10.06,109.17 22,162.67 -4.42,4.4 22,184.65 17.56,219.82 22,30.77 22,180.23 22,224.2 -13.19,35.19 8.79,145.08 8.79,145.08 -17.59,52.76 -8.79,109.91 -8.79,162.67 0,0 87.93,13.19 87.93,17.59 228.61,-4.4 457.23,-26.38 690.24,-13.17 13.19,-4.42 52.76,-13.21 65.95,0 48.44,-3.89 96.51,-11.51 143.78,-22.8 -9.08,-48.58 -18.55,-101.56 -16.27,-131.08 l 8.77,-44 c 0,-8.81 -22,-83.53 -22,-96.74 -13.17,-193.44 -35.15,-391.28 -61.53,-584.7 -26.38,-206.63 -44,-417.66 -79.14,-624.29 -13.19,-96.7 -35.17,-294.54 -22,-391.28 l 13.19,-140.66 c 8.79,-101.14 153.87,-290.16 250.6,-281.37 35.17,4.4 70.34,-26.38 153.87,-17.59 13.19,22 35.17,26.36 52.74,30.77 48.38,22 44,39.55 65.95,105.49 0,22 17.59,83.53 44,96.74 30.77,79.11 74.74,180.25 118.7,268.16 65.95,-215.42 312.15,-470.4 448.44,-466 24.99,-0.68 50,0.79 74.74,4.4 70.34,8.77 118.7,70.34 167.06,105.51 0,0 145.08,145.06 153.87,149.48 7.85,23.56 23.39,40.86 33.85,57.53 29.08,-132.4 126.81,-226 269.5,-290.54 8.77,-4.4 171.44,-17.59 180.23,-17.59 101.12,-13.19 281.37,22 320.94,44 101.12,48.34 439.64,233 228.61,294.56"
         style="fill:#264894;fill-opacity:1;fill-rule:nonzero;stroke:none"
         id="path14" /></g></g></svg>
